<svg id="visual" viewBox="0 0 900 600" width="900" height="600" xmlns="http://www.w3.org/2000/svg" xmlns:xlink="http://www.w3.org/1999/xlink" version="1.1"><rect width="900" height="600" fill="#25294e"></rect><g><g transform="translate(539 421)"><path d="M87.1 -29.7C97.7 4.3 80.7 46 49.2 69.1C17.8 92.3 -28 97 -56.2 76.7C-84.3 56.4 -94.7 11.1 -82.4 -25.2C-70.1 -61.6 -35 -89.1 1.6 -89.6C38.2 -90.1 76.5 -63.7 87.1 -29.7Z" stroke="#a7530e" fill="none" stroke-width="20"></path></g><g transform="translate(201 65)"><path d="M38.5 -12.1C43.4 2.3 36.1 21 23.4 29.7C10.7 38.4 -7.6 36.9 -20.9 27.5C-34.2 18.1 -42.6 0.8 -38.3 -12.9C-34 -26.7 -17 -36.8 -0.1 -36.8C16.9 -36.7 33.7 -26.6 38.5 -12.1Z" stroke="#a7530e" fill="none" stroke-width="20"></path></g><g transform="translate(462 106)"><path d="M75 -26C83.5 1.6 67.1 35.7 41.8 53C16.5 70.3 -17.6 70.8 -41.4 54.2C-65.2 37.6 -78.6 3.9 -69.9 -24.1C-61.3 -52 -30.7 -74.2 1.3 -74.6C33.3 -75 66.5 -53.7 75 -26Z" stroke="#a7530e" fill="none" stroke-width="20"></path></g><g transform="translate(7 303)"><path d="M45 -12.3C52.3 7.8 48.1 34.1 31.2 47.4C14.3 60.7 -15.1 61 -32.7 47.7C-50.3 34.3 -55.9 7.1 -48.5 -13.2C-41 -33.5 -20.5 -47.1 -0.8 -46.8C18.9 -46.5 37.7 -32.5 45 -12.3Z" stroke="#a7530e" fill="none" stroke-width="20"></path></g><g transform="translate(818 122)"><path d="M38.1 -12.9C43.8 5.2 39 26.1 25.3 36.5C11.6 46.8 -10.9 46.5 -25.5 35.7C-40.1 25 -46.8 3.8 -41.2 -14.1C-35.6 -32 -17.8 -46.7 -0.8 -46.4C16.2 -46.2 32.4 -31 38.1 -12.9Z" stroke="#a7530e" fill="none" stroke-width="20"></path></g><g transform="translate(101 586)"><path d="M61.7 -21.3C68.5 1 54.8 28.8 33.3 44C11.9 59.1 -17.4 61.7 -36.8 48.1C-56.2 34.6 -65.7 5.1 -57.9 -18.5C-50.2 -42.1 -25.1 -59.7 1.2 -60.1C27.4 -60.4 54.8 -43.6 61.7 -21.3Z" stroke="#a7530e" fill="none" stroke-width="20"></path></g><g transform="translate(852 507)"><path d="M77.2 -22.5C89.3 12.2 80.9 56.1 55.1 74.5C29.3 93 -14.1 86 -41.9 64.2C-69.7 42.5 -82.1 5.9 -72.5 -25.3C-62.9 -56.5 -31.5 -82.3 0.5 -82.4C32.5 -82.6 65.1 -57.2 77.2 -22.5Z" stroke="#a7530e" fill="none" stroke-width="20"></path></g></g></svg>